<svg id="Calque_1" data-name="Calque 1" xmlns="http://www.w3.org/2000/svg" xmlns:xlink="http://www.w3.org/1999/xlink" viewBox="0 0 790.08 154.34"><defs><style>.cls-1{fill:url(#Dégradé_sans_nom_14);}.cls-2{fill:url(#Dégradé_sans_nom_14-2);}.cls-3{fill:url(#Dégradé_sans_nom_14-3);}.cls-4{fill:url(#Dégradé_sans_nom_14-4);}.cls-5{fill:url(#Dégradé_sans_nom_14-5);}.cls-6{fill:url(#Dégradé_sans_nom_14-6);}</style><linearGradient id="Dégradé_sans_nom_14" x1="-11.79" y1="53.62" x2="778.83" y2="206.35" gradientUnits="userSpaceOnUse"><stop offset="0" stop-color="#abdcff"/><stop offset="1" stop-color="#0396ff"/></linearGradient><linearGradient id="Dégradé_sans_nom_14-2" x1="-7.79" y1="32.91" x2="782.83" y2="185.64" xlink:href="#Dégradé_sans_nom_14"/><linearGradient id="Dégradé_sans_nom_14-3" x1="-3.52" y1="10.81" x2="787.1" y2="163.54" xlink:href="#Dégradé_sans_nom_14"/><linearGradient id="Dégradé_sans_nom_14-4" x1="0.67" y1="-10.9" x2="791.29" y2="141.84" xlink:href="#Dégradé_sans_nom_14"/><linearGradient id="Dégradé_sans_nom_14-5" x1="6.26" y1="-39.84" x2="796.88" y2="112.89" xlink:href="#Dégradé_sans_nom_14"/><linearGradient id="Dégradé_sans_nom_14-6" x1="11.52" y1="-67.03" x2="802.14" y2="85.7" xlink:href="#Dégradé_sans_nom_14"/></defs><title>Wallet</title><polygon class="cls-1" points="131.43 154.34 125.81 154.34 90.81 55.4 56.01 154.34 50.39 154.34 0 2.31 7.31 2.31 53.27 141.2 87.17 45.15 94.44 45.15 128.35 141.22 174.51 2.31 181.82 2.31 131.43 154.34"/><path class="cls-2" d="M311.34,152.87h-7.59l-20.16-49.36H211.76l-19.95,49.36h-7.59L244.72,0h6.12ZM214.7,96.61h66.14L247.68,11.47Z"/><polygon class="cls-3" points="424.69 152.87 338.61 152.87 338.61 2.31 345.72 2.31 345.72 145.75 424.69 145.75 424.69 152.87"/><polygon class="cls-4" points="541.24 152.87 455.16 152.87 455.16 2.31 462.27 2.31 462.27 145.75 541.24 145.75 541.24 152.87"/><polygon class="cls-5" points="656.94 152.87 571.71 152.87 571.71 2.31 656.52 2.31 656.52 9.21 578.82 9.21 578.82 73.93 654.84 73.93 654.84 81.04 578.82 81.04 578.82 145.96 656.94 145.96 656.94 152.87"/><polygon class="cls-6" points="739.26 153.5 732.36 153.5 732.36 9.21 681.53 9.21 681.53 2.1 790.09 2.1 790.09 9.21 739.26 9.21 739.26 153.5"/></svg>